<?xml version="1.0" encoding="UTF-8" standalone="no"?>
<svg
   xmlns:dc="http://purl.org/dc/elements/1.1/"
   xmlns:cc="http://creativecommons.org/ns#"
   xmlns:rdf="http://www.w3.org/1999/02/22-rdf-syntax-ns#"
   xmlns:svg="http://www.w3.org/2000/svg"
   xmlns="http://www.w3.org/2000/svg"
   xmlns:sodipodi="http://sodipodi.sourceforge.net/DTD/sodipodi-0.dtd"
   xmlns:inkscape="http://www.inkscape.org/namespaces/inkscape"
   version="1.0"
   width="250"
   height="76"
   viewBox="0 0 200 60.8"
   preserveAspectRatio="xMidYMid meet"
   id="svg2"
   inkscape:version="0.48.4 r9939"
   sodipodi:docname="hhhhhh.svg">
  <title
     id="title3007">GNU Guix logo</title>
  <defs
     id="defs28" />
  <sodipodi:namedview
     pagecolor="#ffffff"
     bordercolor="#666666"
     borderopacity="1"
     objecttolerance="10"
     gridtolerance="10"
     guidetolerance="10"
     inkscape:pageopacity="0"
     inkscape:pageshadow="2"
     inkscape:window-width="1600"
     inkscape:window-height="844"
     id="namedview26"
     showgrid="false"
     inkscape:zoom="1"
     inkscape:cx="131.87912"
     inkscape:cy="49.456621"
     inkscape:window-x="-4"
     inkscape:window-y="-4"
     inkscape:window-maximized="1"
     inkscape:current-layer="svg2" />
  <metadata
     id="metadata4">
Created by potrace 1.12, written by Peter Selinger 2001-2015
<rdf:RDF>
  <cc:Work
     rdf:about="">
    <dc:format>image/svg+xml</dc:format>
    <dc:type
       rdf:resource="http://purl.org/dc/dcmitype/StillImage" />
    <dc:title>GNU Guix logo</dc:title>
  </cc:Work>
</rdf:RDF>
</metadata>
  <g
     transform="matrix(0.0185384,0,0,-0.01792953,-18.163914,70.701389)"
     id="g6"
     style="fill:#000000;stroke:none">
    <path
       d="m 2340,3899 c -181,-19 -453,-87 -653,-165 -117,-46 -371,-167 -419,-201 -45,-30 -78,-94 -78,-150 0,-75 70,-146 157,-159 26,-4 106,1 191,11 126,16 158,16 243,5 275,-35 446,-150 634,-425 100,-147 246,-300 337,-353 69,-41 174,-84 248,-103 90,-22 252,-18 335,9 144,47 282,172 363,330 54,104 72,185 72,318 0,131 -15,199 -71,312 -48,99 -173,236 -295,324 -281,201 -655,288 -1064,247 z"
       id="path10"
       inkscape:connector-curvature="0"
       style="fill:#ff0000" />
    <path
       d="m 9283,3540 c -39,-16 -43,-40 -43,-257 0,-173 3,-212 16,-231 15,-21 20,-22 203,-22 178,0 189,1 207,21 17,19 19,39 19,241 0,280 18,258 -214,257 -91,0 -176,-4 -188,-9 z"
       id="path12"
       inkscape:connector-curvature="0" />
    <path
       d="m 5656,3479 c -372,-39 -709,-273 -871,-604 -95,-194 -129,-370 -129,-675 -1,-231 9,-310 60,-480 107,-355 353,-606 704,-718 169,-54 255,-66 465,-66 217,0 319,14 497,71 168,53 367,151 425,209 l 23,23 0,534 c 0,530 0,534 -21,553 -20,18 -43,19 -471,19 l -450,0 -19,-24 c -17,-21 -19,-41 -19,-185 0,-222 -21,-206 267,-206 175,0 223,-3 232,-14 8,-9 11,-83 9,-247 l -3,-234 -55,-22 c -106,-42 -213,-57 -390,-57 -193,0 -245,10 -389,81 -178,88 -285,222 -332,418 -93,395 -50,735 125,972 54,74 103,112 211,164 189,91 401,108 628,49 157,-40 330,-124 442,-216 44,-35 62,-44 94,-44 31,0 44,6 60,26 20,25 21,40 21,224 l 0,198 -33,29 c -70,61 -251,141 -419,184 -178,45 -448,61 -662,38 z"
       id="path14"
       inkscape:connector-curvature="0" />
    <path
       d="m 1605,3096 c -276,-64 -464,-256 -540,-551 -77,-301 -12,-721 157,-1020 174,-307 472,-609 853,-863 126,-84 131,-87 195,-90 113,-5 170,51 170,168 0,78 -11,102 -102,222 -158,209 -237,448 -208,632 15,97 49,193 129,364 100,214 113,258 118,433 8,219 -23,350 -113,475 -79,112 -186,185 -319,219 -87,22 -266,28 -340,11 z"
       id="path16"
       inkscape:connector-curvature="0"
       style="fill:#44aa00" />
    <path
       d="m 4055,3016 c -67,-33 -99,-75 -149,-201 -70,-174 -168,-312 -295,-413 -124,-98 -250,-143 -463,-162 -305,-28 -363,-40 -493,-105 -213,-107 -354,-260 -400,-436 -19,-71 -19,-229 0,-304 8,-33 35,-101 60,-151 73,-150 216,-279 367,-331 311,-108 701,13 1021,316 339,323 528,803 578,1469 14,194 9,232 -40,285 -35,37 -43,41 -97,44 -38,2 -70,-2 -89,-11 z"
       id="path18"
       inkscape:connector-curvature="0"
       style="fill:#2a7fff" />
    <path
       d="m 7221,2846 -22,-24 3,-648 4,-649 26,-97 c 42,-153 79,-220 172,-313 88,-87 163,-131 277,-162 89,-24 309,-24 399,0 76,21 196,75 243,111 38,29 47,26 47,-19 0,-60 15,-65 218,-65 169,0 183,1 202,20 20,20 20,33 20,928 0,868 -1,910 -18,925 -16,15 -45,17 -198,17 -140,0 -185,-3 -200,-14 -18,-14 -19,-35 -25,-578 -5,-490 -8,-571 -22,-623 -40,-139 -113,-231 -225,-283 -49,-23 -70,-27 -147,-26 -142,1 -236,52 -285,155 -39,83 -44,175 -45,800 0,504 -1,528 -19,548 -18,20 -29,21 -201,21 -178,0 -182,0 -204,-24 z"
       id="path20"
       inkscape:connector-curvature="0" />
    <path
       d="m 9261,2844 c -21,-27 -21,-31 -21,-924 l 0,-897 23,-21 c 22,-21 32,-22 199,-22 158,0 178,2 199,19 l 24,19 3,900 c 2,898 2,899 -19,925 l -20,27 -184,0 -184,0 -20,-26 z"
       id="path22"
       inkscape:connector-curvature="0" />
    <path
       d="m 9992,2847 c -50,-53 -46,-59 273,-486 162,-217 291,-399 288,-405 -4,-6 -148,-201 -321,-434 -337,-455 -346,-470 -302,-517 23,-25 23,-25 231,-25 l 207,0 28,33 c 16,18 119,155 229,305 110,149 204,270 209,269 4,-2 108,-138 230,-302 l 222,-300 212,-3 c 201,-2 213,-1 232,18 13,13 20,33 20,60 0,36 -26,74 -315,465 l -315,425 290,390 c 159,215 294,399 300,409 5,11 10,35 10,55 0,62 -16,66 -246,66 -178,0 -204,-2 -222,-17 -11,-10 -107,-134 -212,-276 -106,-143 -196,-255 -200,-250 -4,4 -88,116 -185,248 -98,132 -189,252 -203,268 l -26,27 -206,0 c -203,0 -207,0 -228,-23 z"
       id="path24"
       inkscape:connector-curvature="0" />
  </g>
</svg>
